<svg width="51" height="51" viewBox="0 0 51 51" fill="none" xmlns="http://www.w3.org/2000/svg">
<path d="M32.9725 6.34052C28.417 6.11899 25.9072 10.2555 25.2218 12.3514L25.5382 35.0499C25.38 38.398 26.7087 44.9123 33.2889 44.1847C39.8691 43.457 41.145 37.7916 40.9605 35.0499C41.87 34.8522 46.3385 32.6772 47.169 26.192C47.8333 21.0037 43.3068 18.0722 40.9605 17.2549V16.464V13.8146C40.9605 10.5324 38.6669 6.61744 32.9725 6.34052Z" fill="#009099"/>
<path d="M25.1807 34.6241V15.7383" stroke="#0152A8" stroke-width="2" stroke-linecap="round" stroke-linejoin="round"/>
<path d="M17.3125 28.3291C18.8688 28.3291 20.3902 28.7906 21.6843 29.6553C22.9784 30.52 23.987 31.7489 24.5826 33.1868C25.1782 34.6247 25.334 36.2069 25.0304 37.7334C24.7267 39.2599 23.9773 40.662 22.8768 41.7625C21.7763 42.863 20.3741 43.6125 18.8477 43.9161C17.3212 44.2198 15.739 44.0639 14.3011 43.4683C12.8632 42.8727 11.6342 41.8641 10.7695 40.5701C9.90487 39.276 9.44336 37.7546 9.44336 36.1982V34.8801" stroke="#0152A8" stroke-width="2" stroke-linecap="round" stroke-linejoin="round"/>
<path d="M33.0498 28.3291C31.4934 28.3291 29.972 28.7906 28.6779 29.6553C27.3839 30.52 26.3753 31.7489 25.7797 33.1868C25.1841 34.6247 25.0282 36.2069 25.3319 37.7334C25.6355 39.2599 26.385 40.662 27.4855 41.7625C28.586 42.863 29.9881 43.6125 31.5146 43.9161C33.041 44.2198 34.6233 44.0639 36.0612 43.4683C37.4991 42.8727 38.728 41.8641 39.5927 40.5701C40.4574 39.276 40.9189 37.7546 40.9189 36.1982V34.8801" stroke="#0152A8" stroke-width="2" stroke-linecap="round" stroke-linejoin="round"/>
<path d="M14.1642 35.4106H12.5904C10.3583 35.4166 8.19635 34.6318 6.48795 33.1953C4.77956 31.7589 3.63522 29.7637 3.25795 27.5638C2.88069 25.3639 3.29489 23.1014 4.42708 21.1779C5.55926 19.2543 7.33623 17.794 9.44272 17.0559V14.164C9.44272 12.077 10.2718 10.0755 11.7475 8.59973C13.2233 7.12399 15.2248 6.29492 17.3118 6.29492C19.3988 6.29492 21.4004 7.12399 22.8761 8.59973C24.3519 10.0755 25.1809 12.077 25.1809 14.164V36.1975" stroke="#0152A8" stroke-width="2" stroke-linecap="round" stroke-linejoin="round"/>
<path d="M36.1974 35.4106H37.7712C40.0033 35.4166 42.1653 34.6318 43.8737 33.1953C45.582 31.7589 46.7264 29.7637 47.1037 27.5638C47.4809 25.3639 47.0667 23.1014 45.9345 21.1779C44.8023 19.2543 43.0254 17.794 40.9189 17.0559V14.164C40.9189 12.077 40.0898 10.0755 38.6141 8.59973C37.1383 7.12399 35.1368 6.29492 33.0498 6.29492C30.9628 6.29492 28.9612 7.12399 27.4855 8.59973C26.0097 10.0755 25.1807 12.077 25.1807 14.164" stroke="#0152A8" stroke-width="2" stroke-linecap="round" stroke-linejoin="round"/>
<path d="M17.3121 16.5252V18.099C17.3121 19.5599 16.7317 20.961 15.6987 21.994C14.6657 23.0271 13.2646 23.6074 11.8037 23.6074" stroke="#0152A8" stroke-width="2" stroke-linecap="round" stroke-linejoin="round"/>
<path d="M33.0508 16.5254V18.0992C33.0508 19.5601 33.6311 20.9612 34.6641 21.9942C35.6972 23.0272 37.0982 23.6076 38.5592 23.6076" stroke="#0152A8" stroke-width="2" stroke-linecap="round" stroke-linejoin="round"/>
</svg>
