<svg width="44" height="44" viewBox="0 0 44 44" fill="none" xmlns="http://www.w3.org/2000/svg">
<circle cx="21.6503" cy="22.3542" r="21.5574" fill="#009099"/>
<path d="M28.9483 26.0118C28.7705 25.8225 28.1429 25.2627 26.9892 24.522C25.8269 23.7748 24.9697 23.309 24.7239 23.2003C24.7022 23.1907 24.6783 23.1872 24.6548 23.1902C24.6313 23.1931 24.609 23.2024 24.5904 23.217C24.1943 23.5259 23.5275 24.0932 23.4918 24.1239C23.2609 24.3217 23.2609 24.3217 23.0719 24.2601C22.7395 24.1511 21.707 23.6029 20.8073 22.7011C19.9076 21.7994 19.3311 20.7413 19.2221 20.4093C19.1598 20.2199 19.1598 20.2199 19.3583 19.9891C19.3889 19.9533 19.9566 19.2865 20.2655 18.8908C20.2802 18.8722 20.2894 18.8499 20.2924 18.8264C20.2953 18.8029 20.2918 18.779 20.2822 18.7573C20.1736 18.5111 19.7077 17.6543 18.9605 16.4921C18.2188 15.3387 17.6597 14.711 17.4703 14.5333C17.453 14.5169 17.4315 14.5055 17.4082 14.5003C17.3849 14.4951 17.3606 14.4962 17.3379 14.5037C16.676 14.7311 16.0374 15.0213 15.4308 15.3703C14.8452 15.7107 14.2908 16.1022 13.7741 16.5401C13.7561 16.5554 13.7425 16.5754 13.735 16.5978C13.7274 16.6203 13.7261 16.6443 13.7312 16.6674C13.8024 16.9991 14.1426 18.3838 15.1982 20.3017C16.2754 22.2591 17.0218 23.262 18.6037 24.8383C20.1855 26.4147 21.22 27.2061 23.1795 28.2832C25.0974 29.3389 26.4828 29.6794 26.8138 29.7499C26.837 29.755 26.8611 29.7536 26.8835 29.7461C26.906 29.7385 26.926 29.725 26.9415 29.707C27.3793 29.1903 27.7706 28.6359 28.1109 28.0503C28.4599 27.4437 28.7501 26.8051 28.9776 26.1433C28.9849 26.1208 28.986 26.0967 28.9808 26.0736C28.9757 26.0505 28.9644 26.0291 28.9483 26.0118Z" fill="white"/>
</svg>
