<svg width="46" height="41" viewBox="0 0 46 41" fill="none" xmlns="http://www.w3.org/2000/svg">
<path d="M22.9678 39.9785C22.9678 39.9785 1.21094 27.7947 1.21094 13.0001C1.21094 10.3847 2.1171 7.85004 3.77524 5.82743C5.43339 3.80481 7.74109 2.41917 10.3057 1.90624C12.8703 1.39332 15.5335 1.7848 17.842 3.01407C20.1505 4.24335 21.9618 6.23449 22.9678 8.64873C23.9737 6.23449 25.785 4.24335 28.0935 3.01407C30.4021 1.7848 33.0652 1.39332 35.6298 1.90624C38.1944 2.41917 40.5021 3.80481 42.1603 5.82743C43.8184 7.85004 44.7246 10.3847 44.7246 13.0001C44.7246 27.7947 22.9678 39.9785 22.9678 39.9785Z" fill="#009099" stroke="#0152A8" stroke-width="2" stroke-linecap="round" stroke-linejoin="round"/>
<path d="M2.08398 21.0459H10.7982L14.2839 15.8174L21.2552 26.2744L24.7409 21.0459H29.9694" stroke="#0152A8" stroke-width="2" stroke-linecap="round" stroke-linejoin="round"/>
</svg>
