<svg width="45" height="44" viewBox="0 0 45 44" fill="none" xmlns="http://www.w3.org/2000/svg">
<circle cx="22.4727" cy="22.3542" r="21.5574" fill="#009099"/>
<path d="M29.4067 15.6865H16.2388C15.657 15.6871 15.0991 15.9115 14.6877 16.3105C14.2762 16.7095 14.0448 17.2504 14.0442 17.8147V26.9352C14.0448 27.4995 14.2762 28.0404 14.6877 28.4394C15.0991 28.8384 15.657 29.0628 16.2388 29.0634H29.4067C29.9885 29.0628 30.5464 28.8384 30.9578 28.4394C31.3693 28.0404 31.6007 27.4995 31.6013 26.9352V17.8147C31.6007 17.2504 31.3693 16.7095 30.9578 16.3105C30.5464 15.9115 29.9885 15.6871 29.4067 15.6865ZM28.851 19.2067L23.2076 23.463C23.0976 23.5459 22.9621 23.591 22.8228 23.591C22.6834 23.591 22.548 23.5459 22.4379 23.463L16.7945 19.2067C16.7282 19.1581 16.6725 19.0973 16.6307 19.0277C16.5889 18.9581 16.5617 18.8811 16.5508 18.8012C16.5399 18.7214 16.5455 18.6402 16.5672 18.5624C16.589 18.4847 16.6264 18.4119 16.6774 18.3482C16.7284 18.2846 16.7919 18.2315 16.8643 18.1919C16.9367 18.1523 17.0164 18.1271 17.0989 18.1176C17.1814 18.1082 17.2651 18.1147 17.3449 18.1369C17.4248 18.1591 17.4994 18.1964 17.5642 18.2467L22.8228 22.2127L28.0813 18.2467C28.2128 18.1505 28.3781 18.1082 28.5414 18.1292C28.7048 18.1501 28.853 18.2326 28.9542 18.3587C29.0553 18.4849 29.1012 18.6446 29.0819 18.8032C29.0626 18.9619 28.9796 19.1068 28.851 19.2067Z" fill="white"/>
</svg>
