<svg width="49" height="50" viewBox="0 0 49 50" fill="none" xmlns="http://www.w3.org/2000/svg">
<path d="M18.1948 17.6323L7.489 28.3716C3.6669 32.1937 3.66383 38.3875 7.48213 42.2058C11.3004 46.0241 17.4942 46.021 21.3163 42.1989L31.4495 31.9278L24.3016 24.3637L18.1948 17.6323Z" fill="#009099" stroke="#0152A8" stroke-width="2" stroke-linecap="round" stroke-linejoin="round"/>
<path d="M28.2201 7.64033L7.48913 28.3713C3.66703 32.1934 3.66395 38.3872 7.48225 42.2055C11.3006 46.0238 17.4943 46.0207 21.3164 42.1986L42.0474 21.4676C45.8695 17.6455 45.8726 11.4518 42.0543 7.63346C38.236 3.81515 32.0422 3.81823 28.2201 7.64033Z" stroke="#0152A8" stroke-width="2" stroke-linecap="round" stroke-linejoin="round"/>
<path d="M17.8496 18.0215L31.6769 31.8487" stroke="#0152A8" stroke-width="2" stroke-linecap="round" stroke-linejoin="round"/>
<path d="M31.6985 21.499L36.9701 16.4002" stroke="#0152A8" stroke-width="2" stroke-linecap="round" stroke-linejoin="round"/>
</svg>
