<svg width="31" height="31" viewBox="0 0 31 31" fill="none" xmlns="http://www.w3.org/2000/svg">
<path d="M27.8333 6.25H21.6666V3.16666C21.6666 1.47083 20.2791 0.0833282 18.5833 0.0833282H12.4166C10.7208 0.0833282 9.33325 1.47083 9.33325 3.16666V6.25H3.16659C1.47075 6.25 0.083252 7.6375 0.083252 9.33333V27.8333C0.083252 29.5292 1.47075 30.9167 3.16659 30.9167H27.8333C29.5291 30.9167 30.9166 29.5292 30.9166 27.8333V9.33333C30.9166 7.6375 29.5291 6.25 27.8333 6.25ZM12.4166 3.16666H18.5833V6.25H12.4166V3.16666ZM27.8333 27.8333H3.16659V9.33333H27.8333V27.8333Z" fill="#03A9F5"/>
<path d="M17.0416 12.4167H13.9583V17.0417H9.33325V20.125H13.9583V24.75H17.0416V20.125H21.6666V17.0417H17.0416V12.4167Z" fill="#03A9F5"/>
</svg>
