<svg width="35" height="25" viewBox="0 0 35 25" fill="none" xmlns="http://www.w3.org/2000/svg">
<path d="M28.2917 15.5833V3.25C28.2917 1.55417 26.9042 0.166672 25.2084 0.166672H3.62508C1.92925 0.166672 0.541748 1.55417 0.541748 3.25V15.5833C0.541748 17.2792 1.92925 18.6667 3.62508 18.6667H25.2084C26.9042 18.6667 28.2917 17.2792 28.2917 15.5833ZM25.2084 15.5833H3.62508V3.25H25.2084V15.5833ZM14.4167 4.79167C11.8576 4.79167 9.79175 6.8575 9.79175 9.41667C9.79175 11.9758 11.8576 14.0417 14.4167 14.0417C16.9759 14.0417 19.0417 11.9758 19.0417 9.41667C19.0417 6.8575 16.9759 4.79167 14.4167 4.79167ZM34.4584 4.79167V21.75C34.4584 23.4458 33.0709 24.8333 31.3751 24.8333H5.16675C5.16675 23.2917 5.16675 23.4458 5.16675 21.75H31.3751V4.79167C33.0709 4.79167 32.9167 4.79167 34.4584 4.79167Z" fill="#FED600"/>
</svg>
