<svg width="20" height="20" viewBox="0 0 14 10" fill="none" xmlns="http://www.w3.org/2000/svg">
  <path d="M4.9 6.125C3.262 6.125 0 6.944 0 8.575V9.8H9.8V8.575C9.8 6.944 6.538 6.125 4.9 6.125ZM1.638 8.4C2.226 7.994 3.647 7.525 4.9 7.525C6.153 7.525 7.574 7.994 8.162 8.4H1.638ZM4.9 4.9C6.251 4.9 7.35 3.801 7.35 2.45C7.35 1.099 6.251 0 4.9 0C3.549 0 2.45 1.099 2.45 2.45C2.45 3.801 3.549 4.9 4.9 4.9ZM4.9 1.4C5.481 1.4 5.95 1.869 5.95 2.45C5.95 3.031 5.481 3.5 4.9 3.5C4.319 3.5 3.85 3.031 3.85 2.45C3.85 1.869 4.319 1.4 4.9 1.4Z" fill="white"/>
</svg>
